<svg xmlns="http://www.w3.org/2000/svg" xmlns:xlink="http://www.w3.org/1999/xlink" width="400"
	height="400" viewBox="0 0 400 400">
	<rect data-name="background" width="100%" height="100%" fill="transparent"></rect>
	<g data-name="icon" fill="#313131" data="id:7144299"
		transform="translate(133.2751557627149,103.59402735109573) scale(1.334451369062324)">

		<path
			d="m55.941 30.781c0.59375 0.1875 1.1641 0.39062 1.7188 0.61719 0.55469 0.23047 1.1172 0.49609 1.6602 0.78516l4.4766-2.2852h0.003906c0.46875-0.24219 1.0469-0.15234 1.418 0.22656l4.5703 4.5586c0.39063 0.38672 0.47266 0.98828 0.20313 1.4688l-2.2578 4.4375c0.28125 0.53906 0.54688 1.0938 0.78125 1.6562 0.23438 0.55859 0.42969 1.1328 0.61719 1.7227l4.7812 1.5508c0.50391 0.16406 0.83984 0.63281 0.84375 1.1641v6.4531-0.003907c0 0.5625-0.38281 1.0508-0.92578 1.1875l-4.7031 1.5273c-0.1875 0.59766-0.39453 1.168-0.625 1.7227h0.003906c-0.23437 0.56641-0.49219 1.1172-0.78125 1.6562l2.2852 4.4844v-0.003907c0.23828 0.47266 0.14844 1.0469-0.22266 1.4219l-4.5586 4.5625h-0.003907c-0.38672 0.38672-0.98437 0.46875-1.4648 0.20312l-4.4375-2.2617c-0.53516 0.28516-1.0898 0.54688-1.6523 0.77734-0.55469 0.23047-1.1328 0.4375-1.7227 0.625l-1.5508 4.7773h-0.003907c-0.16406 0.50391-0.63281 0.84766-1.1641 0.84766h-6.4531c-0.55859 0-1.0469-0.37891-1.1875-0.92188l-1.5312-4.707c-0.59375-0.17969-1.1641-0.39062-1.7188-0.61719-0.55469-0.23047-1.1172-0.49219-1.6602-0.78125l-4.4805 2.2852c-0.47266 0.23828-1.043 0.14844-1.418-0.22656l-4.5625-4.5625h-0.003906c-0.38672-0.38672-0.46875-0.98438-0.19922-1.4609l2.2617-4.4375c-0.28906-0.53906-0.55078-1.0938-0.78125-1.6602-0.23047-0.55469-0.4375-1.125-0.625-1.7227l-4.7812-1.5508v-0.003906c-0.5-0.16406-0.83984-0.62891-0.83984-1.1562v-6.4531c-0.003906-0.5625 0.37891-1.0508 0.92188-1.1875l4.7031-1.5312c0.1875-0.59375 0.39453-1.168 0.625-1.7188 0.23047-0.56641 0.49219-1.1172 0.77734-1.6602l-2.2852-4.4805c-0.23828-0.47266-0.14844-1.043 0.22266-1.4219l4.5625-4.5586h0.003906c0.38672-0.38672 0.98438-0.47266 1.4609-0.19922l4.4375 2.2617c0.54297-0.28906 1.0938-0.55078 1.6602-0.78516s1.125-0.42969 1.7188-0.61719l1.5586-4.7812-0.003907-0.003906c0.16406-0.5 0.63281-0.83984 1.1602-0.83984h6.4531c0.55859-0.003906 1.0469 0.375 1.1836 0.91797zm-40.602 45.293c2.6484 0 5.0352 1.5938 6.0508 4.0391 1.0117 2.4453 0.45312 5.2617-1.418 7.1328-0.12891 0.12891-0.26562 0.25781-0.40625 0.375 1.7383 0.78125 3.2266 2.0273 4.3008 3.6016 2.543-3.2578 3.0039-7.6797 1.1914-11.395s-5.582-6.0703-9.7148-6.0703-7.9062 2.3555-9.7188 6.0703-1.3516 8.1367 1.1914 11.395c1.0742-1.5742 2.5625-2.8203 4.3008-3.6016-0.14063-0.11719-0.27734-0.24609-0.40625-0.375-1.8711-1.8711-2.4297-4.6875-1.418-7.1328 1.0156-2.4453 3.4023-4.0391 6.0508-4.0391zm2.8984 3.6445v0.003906c-1.3828-1.3828-3.5469-1.5938-5.1719-0.50781-1.6289 1.0859-2.2578 3.168-1.5117 4.9766 0.75 1.8047 2.6719 2.8281 4.5859 2.4492 1.918-0.38281 3.3008-2.0664 3.3008-4.0195 0-1.0898-0.43359-2.1328-1.2031-2.8984zm3.8672 13.289c-1.418-2.3828-3.9883-3.8438-6.7617-3.8438-2.7773 0-5.3438 1.4609-6.7656 3.8438 3.9531 3.1641 9.5742 3.1641 13.527 0zm-6.7617-21.703c6.3281-0.003907 11.777 4.4688 13.016 10.676s-2.0859 12.426-7.9336 14.852c-5.8477 2.4219-12.594 0.375-16.109-4.8867-3.5195-5.2617-2.8281-12.277 1.6484-16.754 2.4844-2.4922 5.8594-3.8906 9.3789-3.8867zm69.32 4.7734-0.003906-0.003906c2.6484 0 5.0391 1.5938 6.0508 4.0391 1.0156 2.4453 0.45312 5.2617-1.418 7.1328-0.12891 0.13281-0.26172 0.25781-0.40625 0.375 0.47656 0.21094 0.93359 0.45703 1.3711 0.73828 1.1602 0.74609 2.1562 1.7188 2.9336 2.8594 2.543-3.2578 3.0039-7.6797 1.1914-11.395-1.8125-3.7148-5.582-6.0703-9.7148-6.0703-4.1328 0-7.9062 2.3555-9.7188 6.0703-1.8125 3.7148-1.3516 8.1367 1.1914 11.395 0.77734-1.1406 1.7773-2.1133 2.9414-2.8594 0.43359-0.28125 0.88672-0.52734 1.3594-0.73828-0.14062-0.11719-0.27734-0.24609-0.40625-0.375-1.8711-1.8711-2.4297-4.6875-1.418-7.1328 1.0156-2.4453 3.4023-4.0391 6.0508-4.0391zm2.8984 3.6445h-0.003906c-1.3828-1.3828-3.5469-1.5938-5.1719-0.50781-1.625 1.0859-2.2578 3.168-1.5078 4.9766 0.74609 1.8047 2.668 2.8281 4.5859 2.4492 1.9141-0.38281 3.2969-2.0664 3.2969-4.0195 0-1.0898-0.42969-2.1328-1.2031-2.8984zm3.8711 13.285h-0.003906c-0.625-1.043-1.4805-1.9297-2.5039-2.5898-1.7969-1.1602-3.9844-1.5391-6.0664-1.0508-2.0781 0.48828-3.8711 1.8047-4.9648 3.6406 3.9531 3.1641 9.5781 3.1641 13.531 0zm-6.7695-21.703h-0.003906c6.3281 0 11.777 4.4688 13.012 10.672 1.2344 6.207-2.0859 12.422-7.9297 14.844-5.8438 2.4219-12.59 0.37891-16.105-4.8828s-2.8242-12.273 1.6484-16.746c2.4844-2.4922 5.8594-3.8906 9.375-3.8867zm0-64.547h-0.003906c2.6484-0.003906 5.0391 1.5898 6.0508 4.0352 1.0156 2.4492 0.45312 5.2617-1.418 7.1367-0.12891 0.12891-0.26172 0.25-0.40625 0.375v-0.003907c0.47656 0.21484 0.93359 0.46094 1.3711 0.73828 1.1562 0.75391 2.1562 1.7266 2.9336 2.8672 2.543-3.2578 3.0039-7.6797 1.1914-11.395-1.8125-3.7148-5.582-6.0703-9.7148-6.0703-4.1328 0-7.9062 2.3555-9.7188 6.0703-1.8125 3.7148-1.3516 8.1367 1.1914 11.395 0.77734-1.1406 1.7773-2.1172 2.9414-2.8672 0.43359-0.27734 0.89062-0.52344 1.3594-0.73828-0.14062-0.125-0.27734-0.24609-0.40625-0.375v0.003907c-1.8711-1.875-2.4297-4.6875-1.418-7.1367 1.0156-2.4453 3.4023-4.0391 6.0508-4.0352zm2.8945 3.6445c-1.3828-1.3828-3.5508-1.5938-5.1758-0.50781-1.625 1.0859-2.2539 3.168-1.5078 4.9727 0.75 1.8086 2.668 2.832 4.5859 2.4531 1.918-0.38281 3.2969-2.0625 3.2969-4.0195 0.003907-1.0859-0.42969-2.1289-1.1992-2.8984zm3.8711 13.281c-0.625-1.043-1.4844-1.9258-2.5039-2.582-1.7969-1.1562-3.9844-1.5352-6.0625-1.0469-2.082 0.48437-3.875 1.7969-4.9688 3.6289 3.9531 3.1758 9.5781 3.1758 13.531 0zm-6.7695-21.699v0.003906c6.3281 0 11.773 4.4688 13.008 10.672 1.2344 6.207-2.0859 12.422-7.9297 14.844-5.8477 2.4219-12.59 0.375-16.105-4.8828-3.5156-5.2617-2.8242-12.273 1.6484-16.75 2.4844-2.4883 5.8594-3.8867 9.3789-3.8828zm-69.32 4.7734c2.6484-0.003906 5.0352 1.5898 6.0508 4.0352 1.0117 2.4492 0.45312 5.2617-1.418 7.1367-0.12891 0.12891-0.26562 0.25-0.40625 0.375v-0.003907c0.47266 0.21484 0.92969 0.46094 1.3672 0.73828 1.1602 0.75 2.1562 1.7266 2.9375 2.8672 2.543-3.2578 3.0039-7.6797 1.1914-11.395-1.8125-3.7148-5.5859-6.0703-9.7188-6.0703s-7.9023 2.3555-9.7188 6.0703c-1.8125 3.7148-1.3477 8.1367 1.1914 11.395 0.78125-1.1406 1.7773-2.1133 2.9375-2.8672 0.4375-0.27734 0.89453-0.52344 1.3672-0.73828-0.14062-0.125-0.27734-0.24609-0.40625-0.375l0.003906 0.003907c-1.875-1.875-2.4336-4.6875-1.418-7.1367 1.0117-2.4453 3.3984-4.0391 6.0469-4.0352zm2.8984 3.6445c-1.3828-1.3828-3.5469-1.5938-5.1719-0.50781-1.625 1.0859-2.2578 3.168-1.5117 4.9727 0.75 1.8086 2.668 2.832 4.5859 2.4531 1.918-0.38281 3.3008-2.0625 3.3008-4.0195 0-1.0859-0.43359-2.1289-1.2031-2.8984zm3.8672 13.281c-0.625-1.0391-1.4805-1.9258-2.5039-2.582-1.793-1.1562-3.9805-1.5312-6.0586-1.0469-2.0781 0.48828-3.8711 1.7969-4.9648 3.6289 3.9492 3.1758 9.5781 3.1758 13.527 0zm-6.7695-21.699v0.003906c6.3281-0.003906 11.777 4.4688 13.012 10.672 1.2344 6.207-2.0859 12.422-7.9336 14.844-5.8438 2.4219-12.59 0.375-16.105-4.8867-3.5117-5.2617-2.8203-12.273 1.6523-16.746 2.4844-2.4922 5.8594-3.8906 9.3789-3.8867zm18.547 14.484c-0.66016-0.019531-1.1875-0.55859-1.1875-1.2227 0-0.66406 0.52734-1.207 1.1875-1.2266h32.234c0.33203-0.007812 0.65234 0.11719 0.89062 0.34766 0.23438 0.23047 0.37109 0.54687 0.37109 0.87891 0 0.33203-0.13672 0.64844-0.37109 0.87891-0.23828 0.23047-0.55859 0.35547-0.89062 0.34375zm49.555 17.32c0-0.67578 0.54688-1.2227 1.2227-1.2227 0.67578 0 1.2227 0.54688 1.2227 1.2227v32.234c0 0.67578-0.54687 1.2227-1.2227 1.2227-0.67578 0-1.2227-0.54688-1.2227-1.2227zm-17.32 49.559c0.67578 0 1.2227 0.54688 1.2227 1.2227 0 0.67188-0.54688 1.2188-1.2227 1.2188h-32.234c-0.67578 0-1.2227-0.54687-1.2227-1.2188 0-0.67578 0.54688-1.2227 1.2227-1.2227zm-49.555-17.324c0 0.67578-0.54688 1.2227-1.2227 1.2227-0.67578 0-1.2227-0.54688-1.2227-1.2227v-32.234c0-0.67578 0.54687-1.2227 1.2227-1.2227 0.67578 0 1.2227 0.54688 1.2227 1.2227zm33.438-28.246c5.7852 0.003906 10.766 4.0938 11.891 9.7656 1.1289 5.6758-1.9102 11.355-7.2578 13.57-5.3438 2.2109-11.508 0.33984-14.723-4.4727-3.2109-4.8125-2.5781-11.223 1.5117-15.312 2.2734-2.2773 5.3594-3.5508 8.5781-3.5508zm6.8438 5.2852c-3.2695-3.2578-8.3789-3.7539-12.211-1.1836-3.832 2.5664-5.3164 7.4805-3.5469 11.742 1.7695 4.2578 6.3008 6.6758 10.824 5.7734 4.5195-0.90625 7.7773-4.8789 7.7734-9.4883 0.003906-2.5703-1.0195-5.0312-2.8398-6.8438zm-0.11719-9.4062c-0.65234-0.26562-1.3203-0.49609-2-0.6875-0.43359-0.089844-0.78125-0.40234-0.91406-0.82031l-1.4727-4.5469h-4.6797l-1.4727 4.5469h-0.007812c-0.125 0.39062-0.44531 0.69141-0.83984 0.80078-0.70703 0.19141-1.3945 0.42969-2.0664 0.70703-0.65234 0.27344-1.2891 0.58594-1.9062 0.92969-0.36719 0.23828-0.83594 0.26562-1.2266 0.070312l-4.2617-2.1719-3.3047 3.3047 2.1719 4.2617c0.19141 0.36719 0.18359 0.80469-0.023438 1.1602-0.36328 0.63672-0.68359 1.2969-0.96875 1.9727-0.26953 0.65234-0.5 1.3203-0.6875 2-0.085937 0.43359-0.40234 0.78125-0.82031 0.91406l-4.5508 1.4727v4.6758l4.543 1.4727c0.39453 0.125 0.69531 0.44141 0.80078 0.83984 0.19531 0.70703 0.42969 1.3984 0.71094 2.0742 0.27344 0.64844 0.58594 1.2812 0.92969 1.8945 0.23828 0.36719 0.26562 0.83594 0.066406 1.2266l-2.1719 4.2656 3.3047 3.3047 4.2656-2.168c0.36719-0.18359 0.80078-0.17188 1.1562 0.027344 1.2539 0.71094 2.582 1.2695 3.9688 1.6602 0.42969 0.089844 0.77734 0.39844 0.91797 0.81641l1.4727 4.5469h4.6836l1.4727-4.543h0.003906v0.003907c0.12891-0.39453 0.44531-0.69531 0.84375-0.80078 0.70313-0.19531 1.3945-0.43359 2.0703-0.71094 0.64844-0.27344 1.2812-0.58203 1.8945-0.92969 0.36719-0.24219 0.83984-0.26953 1.2344-0.070312l4.2617 2.1719 3.3047-3.3047-2.1758-4.2578c-0.19141-0.36719-0.17969-0.80469 0.023438-1.1602 0.36328-0.63672 0.6875-1.2969 0.96875-1.9727 0.26953-0.65234 0.49609-1.3164 0.6875-1.9922 0.089844-0.43359 0.40234-0.78125 0.82031-0.91797l4.5469-1.4727 0.003907-4.6797-4.5469-1.4805h-0.003906c-0.39062-0.12891-0.69141-0.44531-0.80078-0.84375-0.37891-1.3867-0.92969-2.7227-1.6367-3.9766-0.23828-0.36719-0.26562-0.83203-0.070312-1.2266l2.1797-4.2539-3.3047-3.3047-4.2656 2.1719v-0.007812 0.003906c-0.36328 0.1875-0.80078 0.17578-1.1562-0.027344-0.63672-0.36328-1.2969-0.68359-1.9727-0.96875z"></path>

		<rect x="-0.9237897396087646" y="-1.0161991119384766" width="101.85099029541016"
			height="101.859619140625" fill="transparent" pointer-events="all"></rect>
	</g>
	<g data-name="business_name" fill="#313131" data="id:302"
		transform="translate(63.007227477009266,225.19866334949256) scale(1.4141919169916797)">
		<path
			d="M4.44,34.78q0,2.94,1.23,5.3t3.39,3.75t4.96,1.39q2.82,0,4.97-1.39t3.37-3.75t1.22-5.3t-1.22-5.29t-3.37-3.73t-4.97-1.38q-2.8,0-4.96,1.38t-3.39,3.73t-1.23,5.29z M0.9,34.78q0-2.88,0.99-5.37t2.77-4.35t4.17-2.9t5.19-1.04q2.82,0,5.21,1.04t4.16,2.9t2.75,4.35t0.98,5.37q0,2.9-0.97,5.39t-2.74,4.36t-4.15,2.91t-5.24,1.04t-5.27-1.04t-4.17-2.91t-2.72-4.36t-0.96-5.39z M40.18,31.1q1.62,0,3.15,0.68t2.52,2.15t0.99,3.83l0,10.24l-3.52,0l0-9.56q0-2.44-1.14-3.55t-2.94-1.11q-1.18,0-2.27,0.67t-1.79,1.84t-0.7,2.65l0,9.06l-3.48,0l0-16.42l3.48,0l0,2.92q0.18-0.68,0.98-1.48t2.04-1.36t2.68-0.56z M56.96,24.7l-7.12,0l0-3.1l17.68,0l0,3.1l-7.12,0l0,23.3l-3.44,0l0-23.3z M74.6,48l-3.46,0l0-16.42l3.46,0l0,2.84l-0.1,0q0.1-0.52,0.74-1.3t1.76-1.4t2.68-0.62q1.14,0,2.01,0.31t1.23,0.61l-1.42,2.88q-0.28-0.28-0.98-0.57t-1.74-0.29q-1.32,0-2.26,0.82t-1.43,1.97t-0.49,2.13l0,9.04z M98.38,48l0-3.2q-0.16,0.5-0.93,1.38t-2.1,1.59t-3.13,0.71q-2.28,0-4.13-1.08t-2.94-3.03t-1.09-4.57t1.09-4.57t2.94-3.04t4.13-1.09q1.78,0,3.09,0.64t2.1,1.48t0.93,1.44l0-3.08l3.44,0l0,16.42l-3.4,0z M87.5,39.8q0,1.78,0.78,3.08t2.03,2.01t2.67,0.71q1.52,0,2.72-0.72t1.9-2.03t0.7-3.05t-0.7-3.05t-1.9-2.04t-2.72-0.73q-1.42,0-2.67,0.72t-2.03,2.02t-0.78,3.08z M114.18,45.6q1.56,0,2.52-0.5t1.2-0.72l1.7,2.5q-0.2,0.18-0.95,0.57t-1.92,0.71t-2.65,0.32q-2.26,0-4.2-1.01t-3.13-2.95t-1.19-4.74q0-2.82,1.19-4.75t3.13-2.93t4.2-1q1.46,0,2.6,0.35t1.88,0.77t0.98,0.64l-1.72,2.5q-0.16-0.16-0.61-0.49t-1.21-0.61t-1.82-0.28q-1.28,0-2.49,0.69t-1.99,1.99t-0.78,3.12t0.78,3.13t1.99,2t2.49,0.69z M133.08,31.58l4.2,0l-8.48,7.82l9.04,8.6l-4.26,0l-7.62-7.28l0,7.28l-3.48,0l0-27.52l3.48,0l0,17.6z  M166.4,36.3l-12.66,0l0,11.7l-3.38,0l0-26.4l3.38,0l0,11.62l12.66,0l0-11.62l3.38,0l0,26.4l-3.38,0l0-11.7z M175.16,21.6l9.22,0q2.14,0,3.89,0.89t2.8,2.6t1.05,4.17q0,2.44-0.97,4.04t-2.33,2.41t-2.52,0.89l6.54,11.4l-3.88,0l-6.12-11.16l-4.26,0l0,11.16l-3.42,0l0-26.4z M178.58,34.3l4.6,0q2.36,0,3.9-1.18t1.54-3.78t-1.53-3.74t-3.89-1.14l-4.62,0l0,9.84z"></path>
		<rect x="-2.1000001430511475" y="17.479999542236328" width="197.94000244140625" height="34"
			fill="transparent" pointer-events="all"></rect>
	</g>
</svg>